<?xml version="1.0" encoding="UTF-8" standalone="no"?>
<!-- Created with Inkscape (http://www.inkscape.org/) -->

<svg
   xmlns:dc="http://purl.org/dc/elements/1.1/"
   xmlns:cc="http://creativecommons.org/ns#"
   xmlns:rdf="http://www.w3.org/1999/02/22-rdf-syntax-ns#"
   xmlns:svg="http://www.w3.org/2000/svg"
   xmlns="http://www.w3.org/2000/svg"
   xmlns:sodipodi="http://sodipodi.sourceforge.net/DTD/sodipodi-0.dtd"
   xmlns:inkscape="http://www.inkscape.org/namespaces/inkscape"
   width="24"
   height="24"
   id="svg2"
   version="1.1"
   inkscape:version="0.91 r13725"
   inkscape:export-filename="C:\xampp\htdocs\moodle\mod\domoscio\pix\icon.png"
   inkscape:export-xdpi="90"
   inkscape:export-ydpi="90"
   sodipodi:docname="icon.svg">
  <defs
     id="defs4">
    <clipPath
       clipPathUnits="userSpaceOnUse"
       id="clipPath3397">
      <rect
         style="fill:#cccccc"
         id="rect3399"
         width="247.86882"
         height="237.09193"
         x="559.5282"
         y="205.76851" />
    </clipPath>
  </defs>
  <sodipodi:namedview
     id="base"
     pagecolor="#ffffff"
     bordercolor="#666666"
     borderopacity="1.0"
     inkscape:pageopacity="0.0"
     inkscape:pageshadow="2"
     inkscape:zoom="5.6"
     inkscape:cx="-13.0922"
     inkscape:cy="17.11202"
     inkscape:document-units="px"
     inkscape:current-layer="g2986"
     showgrid="false"
     inkscape:window-width="1536"
     inkscape:window-height="811"
     inkscape:window-x="-8"
     inkscape:window-y="-8"
     inkscape:window-maximized="1" />
  <metadata
     id="metadata7">
    <rdf:RDF>
      <cc:Work
         rdf:about="">
        <dc:format>image/svg+xml</dc:format>
        <dc:type
           rdf:resource="http://purl.org/dc/dcmitype/StillImage" />
        <dc:title />
      </cc:Work>
    </rdf:RDF>
  </metadata>
  <g
     inkscape:label="Calque 1"
     inkscape:groupmode="layer"
     id="layer1"
     transform="translate(0,-1028.3622)">
    <g
       id="g2986"
       transform="translate(-77.864522,998.64965)">
      <g
         id="g3375"
         transform="matrix(0.18226806,0,0,0.18226806,-33.58388,-15.756762)"
         clip-path="url(#clipPath3397)">
        <g
           id="g3389">
          <path
             class="st0"
             d="m 709.44676,309.07051 -8.2,12 c 9.5,12.8 6.9,30.8 -5.8,40.4 -12.8,9.5 -30.8,6.9 -40.4,-5.8 -9.5,-12.8 -6.9,-30.8 5.8,-40.4 6.9,-5.1 15.7,-6.9 24,-4.9 l 8.3,-12.1 c -22.1,-8.3 -46.8,2.9 -55.2,25 -8.3,22.1 2.9,46.8 25,55.2 22.1,8.3 46.8,-2.9 55.2,-25 5.8,-15.4 2.4,-32.5 -8.7,-44.4 z"
             id="path12"
             inkscape:connector-curvature="0"
             style="fill:#103f4b" />
          <path
             class="st1"
             d="m 655.14676,294.97051 -4.8,-9.3 c 3.5,-3.1 3.8,-8.5 0.6,-12 -3.1,-3.5 -8.5,-3.8 -12,-0.6 -3.5,3.2 -3.8,8.5 -0.6,12 2,2.3 5.1,3.3 8.1,2.6 l 4.8,9.3 3.9,-2 z"
             id="path22"
             inkscape:connector-curvature="0"
             style="fill:#7c7f7d" />
          <path
             class="st2"
             d="m 689.54676,259.67051 c -0.2,-5.9 -5.1,-10.6 -11,-10.4 -5.9,0.2 -10.6,5.1 -10.4,11 0.1,4.9 3.5,9 8.2,10.1 l -0.2,19.2 4.9,0 0.2,-19.2 c 4.9,-1 8.4,-5.5 8.3,-10.7 z"
             id="path24"
             inkscape:connector-curvature="0"
             style="fill:#e5352d" />
          <path
             class="st3"
             d="m 728.04676,266.47051 c -6.3,-5.3 -15.7,-4.5 -21,1.8 -4.8,5.7 -4.7,14 0.3,19.6 l -24.5,36.3 c -7.5,-2.4 -15.5,1.6 -18,9.1 -2.4,7.5 1.6,15.5 9.1,18 7.5,2.4 15.5,-1.6 18,-9.1 1.5,-4.6 0.6,-9.7 -2.5,-13.5 l 24.7,-36.6 c 7.9,2.3 16.2,-2.2 18.5,-10.1 1.5,-5.7 -0.2,-11.7 -4.6,-15.5 z"
             id="path26"
             inkscape:connector-curvature="0"
             style="fill:#00aaca" />
        </g>
        <path
           style="fill:#103f4b"
           inkscape:connector-curvature="0"
           id="path12-0"
           d="m 451.01576,200.68939 -5.46894,8.00332 c 6.33597,8.53689 4.60192,20.54188 -3.86827,26.94454 -8.53688,6.33597 -20.54188,4.60191 -26.94454,-3.86828 -6.33597,-8.53688 -4.60191,-20.54187 3.86828,-26.94453 4.60191,-3.40142 10.47102,-4.60192 16.00665,-3.26803 l 5.53564,-8.07002 c -14.73946,-5.53563 -31.21298,1.93414 -36.81531,16.6736 -5.53563,14.73946 1.93414,31.21298 16.6736,36.81531 14.73946,5.53563 31.21298,-1.93414 36.81531,-16.6736 3.86827,-10.27094 1.60066,-21.67568 -5.80242,-29.61231 z"
           class="st0" />
        <path
           style="fill:#7c7f7d"
           inkscape:connector-curvature="0"
           id="path22-2"
           d="m 414.80071,191.28548 -3.20133,-6.20258 c 2.3343,-2.06753 2.53438,-5.66903 0.40016,-8.00333 -2.06752,-2.33431 -5.66902,-2.53439 -8.00333,-0.40017 -2.3343,2.13422 -2.53438,5.66903 -0.40016,8.00333 1.33389,1.53397 3.40141,2.20092 5.40224,1.73405 l 3.20134,6.20258 2.60108,-1.33388 z"
           class="st1" />
        <path
           style="fill:#e5352d"
           inkscape:connector-curvature="0"
           id="path24-4"
           d="m 437.74358,167.74235 c -0.13339,-3.93497 -3.40141,-7.0696 -7.33638,-6.93621 -3.93497,0.13338 -7.06961,3.40141 -6.93622,7.33638 0.0667,3.26802 2.3343,6.0025 5.46894,6.73613 l -0.13339,12.80533 3.26803,0 0.13338,-12.80533 c 3.26803,-0.66694 5.60233,-3.66819 5.53564,-7.1363 z"
           class="st2" />
        <path
           style="fill:#00aaca"
           inkscape:connector-curvature="0"
           id="path26-5"
           d="m 463.42092,172.27757 c -4.20174,-3.5348 -10.47102,-3.00125 -14.00582,1.2005 -3.20133,3.80158 -3.13464,9.33722 0.20008,13.0721 l -16.34013,24.21007 c -5.00208,-1.60067 -10.33763,1.06711 -12.00499,6.06919 -1.60066,5.00208 1.06711,10.33763 6.06919,12.00499 5.00208,1.60067 10.33764,-1.06711 12.005,-6.06919 1.00041,-3.06794 0.40016,-6.46936 -1.66736,-9.00374 l 16.47351,-24.41015 c 5.26886,1.53397 10.80449,-1.46728 12.33847,-6.73614 1.00041,-3.80158 -0.13339,-7.80324 -3.06795,-10.33763 z"
           class="st3" />
        <path
           style="fill:#103f4b"
           inkscape:connector-curvature="0"
           id="path12-7"
           d="m 436.01281,81.735135 -2.73447,4.001664 c 3.16798,4.268441 2.30095,10.270937 -1.93414,13.472268 -4.26844,3.167983 -10.27094,2.300953 -13.47227,-1.934138 -3.16798,-4.268441 -2.30096,-10.270937 1.93414,-13.472268 2.30096,-1.700707 5.23551,-2.300957 8.00333,-1.634013 l 2.76781,-4.035011 c -7.36973,-2.767817 -15.60649,0.967069 -18.40765,8.3368 -2.76782,7.369731 0.96707,15.606493 8.3368,18.407653 7.36973,2.76782 15.60649,-0.96707 18.40765,-8.336799 1.93414,-5.135469 0.80034,-10.83784 -2.9012,-14.806156 z"
           class="st0" />
        <path
           style="fill:#7c7f7d"
           inkscape:connector-curvature="0"
           id="path22-3"
           d="m 417.90528,77.03318 -1.60067,-3.10129 c 1.16715,-1.033763 1.2672,-2.834512 0.20009,-4.001664 -1.03377,-1.167152 -2.83452,-1.267193 -4.00167,-0.200083 -1.16715,1.06711 -1.26719,2.834512 -0.20008,4.001664 0.66694,0.766986 1.70071,1.100458 2.70112,0.867027 l 1.60067,3.10129 1.30054,-0.666944 z"
           class="st1" />
        <path
           style="fill:#e5352d"
           inkscape:connector-curvature="0"
           id="path24-2"
           d="m 429.37671,65.261618 c -0.0667,-1.967484 -1.7007,-3.534803 -3.66819,-3.468108 -1.96748,0.06669 -3.5348,1.700707 -3.46811,3.668192 0.0333,1.634012 1.16716,3.001248 2.73447,3.368067 l -0.0667,6.402662 1.63401,0 0.0667,-6.402662 c 1.63401,-0.333472 2.80116,-1.834096 2.76781,-3.568151 z"
           class="st2" />
        <path
           style="fill:#00aaca"
           inkscape:connector-curvature="0"
           id="path26-2"
           d="m 442.21539,67.529228 c -2.10088,-1.767402 -5.23551,-1.500624 -7.00292,0.60025 -1.60066,1.90079 -1.56731,4.668607 0.10005,6.536051 l -8.17007,12.105033 c -2.50104,-0.800333 -5.16881,0.533555 -6.00249,3.034595 -0.80034,2.50104 0.53355,5.168816 3.03459,6.002496 2.50104,0.800332 5.16882,-0.533555 6.0025,-3.034595 0.50021,-1.533972 0.20008,-3.234679 -0.83368,-4.501872 l 8.23676,-12.205075 c 2.63442,0.766985 5.40224,-0.733638 6.16923,-3.368067 0.50021,-1.900791 -0.0667,-3.901623 -1.53397,-5.168816 z"
           class="st3" />
      </g>
    </g>
  </g>
  <style
     id="style3"
     type="text/css">
	.st0{fill:#103F4B;}
	.st1{fill:#7C7F7D;}
	.st2{fill:#E5352D;}
	.st3{fill:#00AACA;}
</style>
</svg>
